<svg xmlns="http://www.w3.org/2000/svg" width="512.016" height="469.332" viewBox="0 0 512.016 469.332">
  <g id="checkmark" transform="translate(0 -0.008)">
    <path id="Path_183" data-name="Path 183" d="M234.668,469.34C105.281,469.34,0,364.063,0,234.676S105.281.008,234.668.008a233.891,233.891,0,0,1,126.59,37.1,16.011,16.011,0,0,1-17.3,26.945A201.78,201.78,0,0,0,234.668,32.008C122.922,32.008,32,122.93,32,234.676S122.922,437.34,234.668,437.34s202.664-90.922,202.664-202.664c0-6.68-.32-13.293-.937-19.8a16,16,0,1,1,31.852-3.094q1.084,11.3,1.086,22.891c0,129.387-105.277,234.664-234.664,234.664Zm0,0" fill="#fff"/>
    <path id="Path_184" data-name="Path 184" d="M261.332,288.008a15.882,15.882,0,0,1-11.3-4.691l-96-96A16.005,16.005,0,0,1,176.66,164.68l84.7,84.7L484.691,26.035a16.005,16.005,0,1,1,22.637,22.633L272.66,283.336a16.03,16.03,0,0,1-11.328,4.672Zm0,0" fill="#fff"/>
  </g>
</svg>
