<svg xmlns="http://www.w3.org/2000/svg" xmlns:xlink="http://www.w3.org/1999/xlink" width="675" height="1614" viewBox="0 0 675 1614">
  <defs>
    <clipPath id="clip-path">
      <rect width="675" height="1614" fill="none"/>
    </clipPath>
  </defs>
  <g id="Repeat_Grid_2" data-name="Repeat Grid 2" clip-path="url(#clip-path)">
    <g transform="translate(-757 -244)">
      <circle id="Ellipse_31" data-name="Ellipse 31" cx="35" cy="35" r="35" transform="translate(757 244)"/>
    </g>
    <g transform="translate(-559 -244)">
      <circle id="Ellipse_31-2" data-name="Ellipse 31" cx="35" cy="35" r="35" transform="translate(757 244)"/>
    </g>
    <g transform="translate(-361 -244)">
      <circle id="Ellipse_31-3" data-name="Ellipse 31" cx="35" cy="35" r="35" transform="translate(757 244)"/>
    </g>
    <g transform="translate(-163 -244)">
      <circle id="Ellipse_31-4" data-name="Ellipse 31" cx="35" cy="35" r="35" transform="translate(757 244)"/>
    </g>
    <g transform="translate(-757 14)">
      <circle id="Ellipse_31-5" data-name="Ellipse 31" cx="35" cy="35" r="35" transform="translate(757 244)"/>
    </g>
    <g transform="translate(-559 14)">
      <circle id="Ellipse_31-6" data-name="Ellipse 31" cx="35" cy="35" r="35" transform="translate(757 244)"/>
    </g>
    <g transform="translate(-361 14)">
      <circle id="Ellipse_31-7" data-name="Ellipse 31" cx="35" cy="35" r="35" transform="translate(757 244)"/>
    </g>
    <g transform="translate(-163 14)">
      <circle id="Ellipse_31-8" data-name="Ellipse 31" cx="35" cy="35" r="35" transform="translate(757 244)"/>
    </g>
    <g transform="translate(-757 272)">
      <circle id="Ellipse_31-9" data-name="Ellipse 31" cx="35" cy="35" r="35" transform="translate(757 244)"/>
    </g>
    <g transform="translate(-559 272)">
      <circle id="Ellipse_31-10" data-name="Ellipse 31" cx="35" cy="35" r="35" transform="translate(757 244)"/>
    </g>
    <g transform="translate(-361 272)">
      <circle id="Ellipse_31-11" data-name="Ellipse 31" cx="35" cy="35" r="35" transform="translate(757 244)"/>
    </g>
    <g transform="translate(-163 272)">
      <circle id="Ellipse_31-12" data-name="Ellipse 31" cx="35" cy="35" r="35" transform="translate(757 244)"/>
    </g>
    <g transform="translate(-757 530)">
      <circle id="Ellipse_31-13" data-name="Ellipse 31" cx="35" cy="35" r="35" transform="translate(757 244)"/>
    </g>
    <g transform="translate(-559 530)">
      <circle id="Ellipse_31-14" data-name="Ellipse 31" cx="35" cy="35" r="35" transform="translate(757 244)"/>
    </g>
    <g transform="translate(-361 530)">
      <circle id="Ellipse_31-15" data-name="Ellipse 31" cx="35" cy="35" r="35" transform="translate(757 244)"/>
    </g>
    <g transform="translate(-163 530)">
      <circle id="Ellipse_31-16" data-name="Ellipse 31" cx="35" cy="35" r="35" transform="translate(757 244)"/>
    </g>
    <g transform="translate(-757 788)">
      <circle id="Ellipse_31-17" data-name="Ellipse 31" cx="35" cy="35" r="35" transform="translate(757 244)"/>
    </g>
    <g transform="translate(-559 788)">
      <circle id="Ellipse_31-18" data-name="Ellipse 31" cx="35" cy="35" r="35" transform="translate(757 244)"/>
    </g>
    <g transform="translate(-361 788)">
      <circle id="Ellipse_31-19" data-name="Ellipse 31" cx="35" cy="35" r="35" transform="translate(757 244)"/>
    </g>
    <g transform="translate(-163 788)">
      <circle id="Ellipse_31-20" data-name="Ellipse 31" cx="35" cy="35" r="35" transform="translate(757 244)"/>
    </g>
    <g transform="translate(-757 1046)">
      <circle id="Ellipse_31-21" data-name="Ellipse 31" cx="35" cy="35" r="35" transform="translate(757 244)"/>
    </g>
    <g transform="translate(-559 1046)">
      <circle id="Ellipse_31-22" data-name="Ellipse 31" cx="35" cy="35" r="35" transform="translate(757 244)"/>
    </g>
    <g transform="translate(-361 1046)">
      <circle id="Ellipse_31-23" data-name="Ellipse 31" cx="35" cy="35" r="35" transform="translate(757 244)"/>
    </g>
    <g transform="translate(-163 1046)">
      <circle id="Ellipse_31-24" data-name="Ellipse 31" cx="35" cy="35" r="35" transform="translate(757 244)"/>
    </g>
    <g transform="translate(-757 1304)">
      <circle id="Ellipse_31-25" data-name="Ellipse 31" cx="35" cy="35" r="35" transform="translate(757 244)"/>
    </g>
    <g transform="translate(-559 1304)">
      <circle id="Ellipse_31-26" data-name="Ellipse 31" cx="35" cy="35" r="35" transform="translate(757 244)"/>
    </g>
    <g transform="translate(-361 1304)">
      <circle id="Ellipse_31-27" data-name="Ellipse 31" cx="35" cy="35" r="35" transform="translate(757 244)"/>
    </g>
    <g transform="translate(-163 1304)">
      <circle id="Ellipse_31-28" data-name="Ellipse 31" cx="35" cy="35" r="35" transform="translate(757 244)"/>
    </g>
  </g>
</svg>
